<svg width="133" height="34" viewBox="0 0 133 34" fill="none" xmlns="http://www.w3.org/2000/svg">
<rect width="133" height="34" fill="white"/>
<path d="M23.804 30V19.12L24.382 21.534L12.244 6.2H17.208L26.116 17.896H25.3L33.868 6.2H38.356L27.238 20.888L27.476 18.848V30H23.804ZM51.4906 30.34C49.4733 30.34 47.7053 29.9433 46.1866 29.15C44.668 28.3567 43.4893 27.2573 42.6506 25.852C41.8346 24.4467 41.4266 22.8487 41.4266 21.058C41.4266 19.2447 41.8573 17.6467 42.7186 16.264C43.6026 14.8587 44.8266 13.7593 46.3906 12.966C47.9546 12.1727 49.734 11.776 51.7286 11.776C52.9753 11.776 54.12 11.9233 55.1626 12.218C56.228 12.5127 57.1573 12.9093 57.9506 13.408C58.744 13.9067 59.356 14.4507 59.7866 15.04C60.24 15.6067 60.478 16.1847 60.5006 16.774H59.5146V12.15H63.0166V30H59.5146V25.206L60.2286 25.376C60.206 25.92 59.9453 26.4867 59.4466 27.076C58.9706 27.6427 58.3246 28.1753 57.5086 28.674C56.7153 29.1727 55.7973 29.5807 54.7546 29.898C53.712 30.1927 52.624 30.34 51.4906 30.34ZM52.3066 27.11C53.7573 27.11 55.038 26.8493 56.1486 26.328C57.2593 25.784 58.1206 25.0587 58.7326 24.152C59.3446 23.2227 59.6506 22.1913 59.6506 21.058C59.6506 19.9247 59.3446 18.9047 58.7326 17.998C58.1206 17.0913 57.2593 16.3773 56.1486 15.856C55.038 15.312 53.7573 15.04 52.3066 15.04C50.8786 15.04 49.6093 15.312 48.4986 15.856C47.4106 16.3773 46.5493 17.0913 45.9146 17.998C45.3026 18.9047 44.9966 19.9247 44.9966 21.058C44.9966 22.1913 45.3026 23.2227 45.9146 24.152C46.5493 25.0587 47.4106 25.784 48.4986 26.328C49.6093 26.8493 50.8786 27.11 52.3066 27.11ZM75.4288 30V12.15H78.9647V18.474L78.0808 18.032C78.4208 16.876 78.9874 15.8333 79.7808 14.904C80.5741 13.952 81.4921 13.1927 82.5348 12.626C83.5774 12.0593 84.6541 11.776 85.7648 11.776C86.5128 11.776 87.2381 11.8553 87.9408 12.014C88.6661 12.1727 89.2214 12.388 89.6068 12.66L88.6888 16.298C88.2354 16.0487 87.6801 15.8447 87.0228 15.686C86.3881 15.5273 85.7761 15.448 85.1868 15.448C84.2574 15.448 83.4074 15.618 82.6368 15.958C81.8888 16.2753 81.2314 16.6947 80.6648 17.216C80.1208 17.7373 79.7014 18.3267 79.4068 18.984C79.1121 19.6187 78.9647 20.276 78.9647 20.956V30H75.4288ZM105.914 30.34C103.851 30.34 102.049 29.9433 100.508 29.15C98.9891 28.3567 97.8104 27.2573 96.9717 25.852C96.1331 24.4467 95.7137 22.8487 95.7137 21.058C95.7137 19.2447 96.1557 17.6467 97.0397 16.264C97.9237 14.8587 99.1364 13.7593 100.678 12.966C102.242 12.1727 104.032 11.776 106.05 11.776C107.274 11.776 108.418 11.9347 109.484 12.252C110.572 12.5467 111.512 12.9433 112.306 13.442C113.122 13.918 113.745 14.4507 114.176 15.04C114.629 15.6067 114.856 16.162 114.856 16.706L113.836 16.774V4.84H117.338V30H113.836V25.206L114.516 25.41C114.516 25.954 114.278 26.5093 113.802 27.076C113.326 27.6427 112.691 28.1753 111.898 28.674C111.104 29.1727 110.186 29.5807 109.144 29.898C108.101 30.1927 107.024 30.34 105.914 30.34ZM106.628 27.144C108.078 27.144 109.348 26.8833 110.436 26.362C111.546 25.818 112.408 25.0927 113.02 24.186C113.654 23.2567 113.972 22.214 113.972 21.058C113.972 19.902 113.654 18.8707 113.02 17.964C112.408 17.0573 111.546 16.3433 110.436 15.822C109.348 15.278 108.078 15.006 106.628 15.006C105.2 15.006 103.93 15.2667 102.82 15.788C101.709 16.3093 100.836 17.0347 100.202 17.964C99.5897 18.8707 99.2837 19.902 99.2837 21.058C99.2837 22.214 99.5897 23.2567 100.202 24.186C100.836 25.0927 101.709 25.818 102.82 26.362C103.93 26.8833 105.2 27.144 106.628 27.144Z" fill="#0D5E01"/>
</svg>
