<svg width="40" height="26" viewBox="0 0 40 26" fill="none" xmlns="http://www.w3.org/2000/svg">
<path fill-rule="evenodd" clip-rule="evenodd" d="M40 12.8581C40 12.4793 39.8495 12.1159 39.5816 11.848C39.3137 11.5801 38.9504 11.4296 38.5715 11.4296H4.87939L13.8702 2.44165C14.0031 2.30883 14.1084 2.15116 14.1803 1.97763C14.2522 1.8041 14.2892 1.61811 14.2892 1.43028C14.2892 1.24246 14.2522 1.05647 14.1803 0.882938C14.1084 0.709408 14.0031 0.551735 13.8702 0.41892C13.7374 0.286106 13.5798 0.180753 13.4062 0.108874C13.2327 0.0369955 13.0467 0 12.8589 0C12.671 0 12.4851 0.0369955 12.3115 0.108874C12.138 0.180753 11.9803 0.286106 11.8475 0.41892L0.41967 11.8468C0.28664 11.9795 0.181096 12.1371 0.109082 12.3106C0.0370685 12.4842 0 12.6702 0 12.8581C0 13.046 0.0370685 13.2321 0.109082 13.4056C0.181096 13.5792 0.28664 13.7368 0.41967 13.8695L11.8475 25.2973C11.9803 25.4301 12.138 25.5355 12.3115 25.6074C12.4851 25.6793 12.671 25.7163 12.8589 25.7163C13.0467 25.7163 13.2327 25.6793 13.4062 25.6074C13.5798 25.5355 13.7374 25.4301 13.8702 25.2973C14.0031 25.1645 14.1084 25.0068 14.1803 24.8333C14.2522 24.6598 14.2892 24.4738 14.2892 24.286C14.2892 24.0981 14.2522 23.9122 14.1803 23.7386C14.1084 23.5651 14.0031 23.4074 13.8702 23.2746L4.87939 14.2866H38.5715C38.9504 14.2866 39.3137 14.1361 39.5816 13.8682C39.8495 13.6003 40 13.237 40 12.8581Z" fill="black"/>
</svg>
