<svg width="33" height="33" viewBox="0 0 33 33" fill="none" xmlns="http://www.w3.org/2000/svg">
<g clip-path="url(#clip0_133_1669)">
<path d="M28.1373 6.22421C27.4477 5.53429 26.6289 4.98699 25.7277 4.61359C24.8266 4.24019 23.8607 4.048 22.8852 4.048C21.9097 4.048 20.9438 4.24019 20.0426 4.61359C19.1415 4.98699 18.3227 5.53429 17.6331 6.22421L16.2019 7.65538L14.7708 6.22421C13.3778 4.83127 11.4886 4.04872 9.51866 4.04872C7.54874 4.04872 5.6595 4.83127 4.26656 6.22421C2.87361 7.61716 2.09106 9.50639 2.09106 11.4763C2.09106 13.4462 2.87361 15.3355 4.26656 16.7284L16.2019 28.6638L28.1373 16.7284C28.8272 16.0388 29.3745 15.22 29.7479 14.3189C30.1213 13.4177 30.3135 12.4518 30.3135 11.4763C30.3135 10.5008 30.1213 9.53493 29.7479 8.63376C29.3745 7.73258 28.8272 6.91381 28.1373 6.22421Z" stroke="#1E1E1E" stroke-width="4" stroke-linecap="round" stroke-linejoin="round"/>
<rect x="1" y="11.4853" width="12" height="22.0085" transform="rotate(-45 1 11.4853)" fill="#1E1E1E"/>
<rect x="22.2175" y="2.21753" width="13.8345" height="20.1066" transform="rotate(45 22.2175 2.21753)" fill="#1E1E1E"/>
</g>
<defs>
<clipPath id="clip0_133_1669">
<rect width="32.4037" height="32.4037" fill="white"/>
</clipPath>
</defs>
</svg>
