<svg width="50" height="50" viewBox="0 0 50 50" fill="none" xmlns="http://www.w3.org/2000/svg">
<path d="M32.1656 26.0625H33.3731L32.5191 26.9161L25.8098 33.6223C25.8098 33.6223 25.8097 33.6224 25.8097 33.6224C25.7109 33.7212 25.6325 33.8385 25.5791 33.9676C25.5256 34.0968 25.498 34.2352 25.498 34.375C25.498 34.5148 25.5256 34.6532 25.5791 34.7824C25.6326 34.9115 25.711 35.0289 25.8098 35.1277C25.9086 35.2265 26.026 35.305 26.1551 35.3584C26.2843 35.4119 26.4227 35.4395 26.5625 35.4395C26.7023 35.4395 26.8407 35.4119 26.9699 35.3584C27.099 35.305 27.2164 35.2265 27.3152 35.1277L36.6902 25.7527L36.6906 25.7523C36.7896 25.6536 36.8681 25.5363 36.9217 25.4072C36.9752 25.2781 37.0028 25.1398 37.0028 25C37.0028 24.8602 36.9752 24.7219 36.9217 24.5928C36.8681 24.4637 36.7896 24.3464 36.6906 24.2477L36.6902 24.2473L27.3152 14.8723C27.1156 14.6727 26.8448 14.5605 26.5625 14.5605C26.2802 14.5605 26.0094 14.6727 25.8098 14.8723C25.6102 15.0719 25.498 15.3427 25.498 15.625C25.498 15.9073 25.6101 16.178 25.8097 16.3776C25.8097 16.3776 25.8098 16.3777 25.8098 16.3777L32.5191 23.0839L33.3731 23.9375H32.1656H14.0625C13.7807 23.9375 13.5105 24.0494 13.3112 24.2487C13.1119 24.448 13 24.7182 13 25C13 25.2818 13.1119 25.552 13.3112 25.7513C13.5105 25.9506 13.7807 26.0625 14.0625 26.0625H32.1656ZM47.375 25C47.375 30.9342 45.0176 36.6254 40.8215 40.8215C36.6254 45.0176 30.9342 47.375 25 47.375C19.0658 47.375 13.3746 45.0176 9.17849 40.8215C4.98236 36.6254 2.625 30.9342 2.625 25C2.625 19.0658 4.98236 13.3746 9.17849 9.17848C13.3746 4.98236 19.0658 2.625 25 2.625C30.9342 2.625 36.6254 4.98236 40.8215 9.17848C45.0176 13.3746 47.375 19.0658 47.375 25ZM0.5 25C0.5 31.4978 3.08124 37.7295 7.67588 42.3241C12.2705 46.9188 18.5022 49.5 25 49.5C31.4978 49.5 37.7295 46.9188 42.3241 42.3241C46.9188 37.7295 49.5 31.4978 49.5 25C49.5 18.5022 46.9188 12.2705 42.3241 7.67588C37.7295 3.08124 31.4978 0.5 25 0.5C18.5022 0.5 12.2705 3.08124 7.67588 7.67588C3.08124 12.2705 0.5 18.5022 0.5 25Z" fill="black" stroke="black"/>
</svg>
