<svg width="33" height="33" viewBox="0 0 33 33" fill="none" xmlns="http://www.w3.org/2000/svg">
<path d="M9.45097 9.45108H9.46447M27.7996 18.1056L18.119 27.7862C17.8682 28.0372 17.5704 28.2364 17.2425 28.3723C16.9147 28.5082 16.5634 28.5781 16.2085 28.5781C15.8536 28.5781 15.5022 28.5082 15.1744 28.3723C14.8466 28.2364 14.5488 28.0372 14.298 27.7862L2.7002 16.2019V2.70031H16.2017L27.7996 14.2981C28.3025 14.8041 28.5848 15.4885 28.5848 16.2019C28.5848 16.9152 28.3025 17.5996 27.7996 18.1056Z" stroke="#1E1E1E" stroke-width="4" stroke-linecap="round" stroke-linejoin="round"/>
<rect x="2" y="14.4498" width="17.2886" height="19.481" transform="rotate(-45 2 14.4498)" fill="#1E1E1E"/>
<rect x="3" y="4" width="13" height="10" fill="#1E1E1E"/>
</svg>
