<svg width="33" height="33" viewBox="0 0 33 33" fill="none" xmlns="http://www.w3.org/2000/svg">
<path d="M27.0031 28.3532V25.6529C27.0031 24.2206 26.4341 22.8469 25.4213 21.8341C24.4085 20.8213 23.0348 20.2523 21.6025 20.2523H10.8013C9.36892 20.2523 7.99525 20.8213 6.98244 21.8341C5.96963 22.8469 5.40063 24.2206 5.40063 25.6529V28.3532M21.6025 9.45108C21.6025 12.4338 19.1845 14.8517 16.2019 14.8517C13.2192 14.8517 10.8013 12.4338 10.8013 9.45108C10.8013 6.4684 13.2192 4.05046 16.2019 4.05046C19.1845 4.05046 21.6025 6.4684 21.6025 9.45108Z" stroke="#1E1E1E" stroke-width="4" stroke-linecap="round" stroke-linejoin="round"/>
<rect x="7" y="20" width="19" height="10" fill="#1E1E1E"/>
<rect x="12" y="5" width="8" height="9" fill="#1E1E1E"/>
<rect x="5" y="29" width="17" height="1" fill="#1E1E1E"/>
</svg>
